<svg xmlns="http://www.w3.org/2000/svg" xmlns:xlink="http://www.w3.org/1999/xlink" style="isolation:isolate" viewBox="158.22 251.11 791.78 537.89"><defs><clipPath id="_clipPath_zBdLYZdZyHpwLazojBfKH3XL66C37i57"><rect x="158.225" y="251.11" width="791.775" height="537.89"/></clipPath></defs><g clip-path="url(#_clipPath_zBdLYZdZyHpwLazojBfKH3XL66C37i57)"><g><path d=" M 566.621 251.8 C 576.671 252.54 586.681 254.19 596.551 256.17 C 626.391 263.59 654.461 278.68 677.081 299.53 C 683.831 305.48 690.181 311.85 695.661 319.01 C 716.131 344.32 729.981 374.51 733.751 406.98 C 734.891 416.04 734.691 424.9 734.661 434 C 734.431 453.8 731.641 473.18 724.211 491.62 C 718.841 506.3 711.241 519.93 702.401 532.79 C 694.881 543.49 685.241 553.16 675.791 562.17 C 666.291 571.5 655.251 578.52 643.851 585.24 C 637.001 589.57 629.601 592.64 622.081 595.58 C 611.051 600.49 599.431 603.59 587.621 605.95 C 569.981 608.7 552.451 610.34 534.651 607.82 C 522.821 606.21 510.601 604.12 499.251 600.36 C 476.501 592.48 455.211 581.49 436.821 565.81 C 412.631 545.55 394.261 518.87 383.371 489.29 C 379.301 477.51 376.721 465.11 374.771 452.81 C 373.111 442.59 373.621 432.59 373.561 422 C 373.511 414.94 374.421 408 375.691 401.08 C 380.091 374.64 390.631 349.44 406.291 327.69 C 413.301 316.99 422.421 308.73 431.361 299.74 C 437.631 293.57 444.391 287.92 451.781 283.14 C 468.781 271.64 487.381 262.85 507.181 257.42 C 526.331 252.8 546.941 249.65 566.621 251.8 Z  M 456.311 540.25 C 455.941 532.73 455.881 525.61 459.281 518.67 C 463.861 509.45 469.311 499.22 478.371 493.74 C 485.051 489.41 492.741 487.92 500.611 487.94 C 533.271 488.04 565.951 488.01 598.621 487.98 C 607.351 488.08 616.851 486.85 624.911 490.73 C 636.281 495.75 643.781 506.91 648.671 517.91 C 652.011 525.34 652.731 533.12 653.051 541.16 C 667.441 530.52 678.871 516.79 688.021 501.49 C 699.201 480.56 706.271 457.97 705.801 434.05 C 706.341 412.47 703.541 391.22 694.071 371.62 C 686.621 352.82 674.581 336.5 659.951 322.66 C 650.361 313.12 638.631 305.42 626.951 298.68 C 609.991 289.84 591.861 283.48 572.731 281.66 C 557.171 278.61 542.011 280.42 526.521 282.84 C 504.121 287.18 482.701 296.15 464.271 309.66 C 455.541 316.26 447.121 322.96 440.091 331.42 C 433.171 340.01 426.261 347.69 421.241 357.64 C 414.111 371.56 407.551 386.73 404.881 402.21 C 400.731 425.2 401.951 449.73 408.351 472.2 C 413.181 486.83 419.401 502.39 429.131 514.47 C 433.051 519.47 437.101 524.54 441.591 529.03 C 446.041 533.46 451.121 536.76 456.311 540.25 Z " fill="rgb(20,20,21)"/><path d=" M 546.621 333.95 C 559.301 334.06 571.511 333.44 584.021 335.69 C 598.181 338.44 610.601 347.02 618.891 358.73 C 621.261 361.75 623.211 365.81 626.311 368.1 C 631.751 369.92 638.841 368.08 644.181 370.5 C 648.841 372.94 649.531 379.29 649.691 383.97 C 649.771 395.31 649.441 406.65 649.781 418 C 649.581 422.54 650.381 428.48 645.881 431.26 C 640.421 434.43 632.191 431.67 626.551 434.06 C 621.241 439.01 617.731 445.75 612.411 450.79 C 602.601 461.1 588.721 466.14 574.631 466.08 C 559.951 465.97 545.281 465.99 530.601 466.08 C 516.441 466.21 502.041 458.26 492.841 447.76 C 488.941 443.68 486.901 437.7 482.741 434.02 C 476.561 431.73 467.051 434.2 461.011 430.55 C 458.461 428.68 458.661 423.85 458.491 421.03 C 458.591 409.01 458.731 397.01 458.471 384.99 C 458.631 380.45 458.181 374.75 462.371 371.77 C 467.601 367.91 476.171 369.99 481.931 368.08 C 486.381 364.46 488.941 358.44 492.761 354.1 C 499.151 346.6 507.721 340.4 517.231 337.6 C 526.851 334.67 536.611 333.87 546.621 333.95 Z  M 569.621 422.02 C 575.821 421.97 582.331 422.61 588.451 421.57 C 593.561 420.58 596.221 415.95 596.531 411.06 C 596.931 403.94 597.321 396.4 596.011 389.37 C 594.691 383.7 587.381 383.13 582.651 382.93 C 564.981 382.92 547.301 383.15 529.621 382.88 C 525.021 382.97 518.201 382.61 514.561 385.92 C 511.611 389.23 511.141 394.9 511.171 399.16 C 511.461 404.88 510.851 411.97 513.491 417.17 C 516.411 422.09 521.521 421.97 526.601 422.14 C 540.941 421.98 555.281 421.95 569.621 422.02 Z " fill="rgb(20,20,21)"/><path d=" M 529.621 382.88 C 547.301 383.15 564.981 382.92 582.651 382.93 C 587.381 383.13 594.691 383.7 596.011 389.37 C 597.321 396.4 596.931 403.94 596.531 411.06 C 596.221 415.95 593.561 420.58 588.451 421.57 C 582.331 422.61 575.821 421.97 569.621 422.02 C 555.281 421.95 540.941 421.98 526.601 422.14 C 521.521 421.97 516.411 422.09 513.491 417.17 C 510.851 411.97 511.461 404.88 511.171 399.16 C 511.141 394.9 511.611 389.23 514.561 385.92 C 518.201 382.61 525.021 382.97 529.621 382.88 Z " fill="rgb(237,239,243)"/></g><g><g><path d=" M 913.385 669.143 C 916.315 669.373 916.835 672.563 917.515 674.843 C 918.955 681.873 918.335 689.443 918.635 696.593 C 925.615 696.893 933.835 696.423 940.405 698.943 C 945.255 700.803 949.245 704.763 949.995 710.053 C 950.145 715.103 946.655 720.163 941.365 720.643 C 934.145 721.453 926.725 720.833 919.465 720.943 C 919.465 731.943 919.225 742.953 919.305 753.953 C 919.555 757.963 919.565 762.553 924.035 764.153 C 930.785 766.183 939.185 763.993 946.145 764.583 C 948.905 771.103 947.035 780.023 947.255 787.053 C 938.505 787.943 929.325 788.753 920.595 787.463 C 908.225 784.893 897.055 774.823 895.695 761.843 C 894.655 750.613 895.855 739.133 895.485 727.863 C 895.305 726.093 895.365 723.733 894.325 722.223 C 891.165 719.913 885.665 719.773 884.075 716.063 C 881.875 712.273 881.235 706.813 885.375 704.053 C 888.855 700.983 895.655 699.623 895.365 693.993 C 895.895 685.823 894.795 677.623 895.825 669.403 C 901.585 668.693 907.625 668.253 913.385 669.143 Z " fill="rgb(20,20,21)"/><path d=" M 826.305 695.183 C 836.225 696.023 846.155 698.783 853.665 705.643 C 859.855 710.983 864.065 718.063 864.965 726.283 C 866.095 736.733 864.955 747.413 865.485 757.923 C 866.015 767.613 866.825 777.303 868.125 786.923 C 862.625 786.883 857.125 786.873 851.625 786.853 C 850.075 783.003 848.655 779.103 847.135 775.243 C 837.745 782.073 828.425 787.723 816.405 787.873 C 806.675 787.853 794.645 786.243 788.035 778.263 C 782.935 772.693 780.735 766.473 781.185 758.883 C 781.225 747.733 789.095 738.713 798.955 734.433 C 813.805 727.943 828.055 729.853 843.655 730.883 C 841.055 726.353 839.095 721.473 833.735 719.663 C 824.165 716.523 813.315 717.973 804.125 721.723 C 801.005 722.803 796.765 724.783 793.705 722.653 C 789.905 720.053 789.245 715.283 790.825 711.193 C 792.325 707.553 793.765 704.063 794.495 700.153 C 804.715 697.043 815.555 694.643 826.305 695.183 Z  M 836.925 750.303 C 827.695 749.513 815.395 749.283 807.635 755.183 C 803.755 757.933 805.195 764.373 809.555 765.643 C 816.105 767.123 823.445 765.063 829.005 761.483 C 833.095 758.773 834.935 754.593 836.925 750.303 Z " fill="rgb(20,20,21)"/><path d=" M 702.475 669.691 C 721.409 667.868 741.666 674.136 754.01 689.152 C 766.906 703.102 770.721 723.936 767.215 742.177 C 761.845 769.331 736.168 789.948 708.397 788.83 C 678.455 788.83 651.93 763.384 650.632 733.442 C 647.742 702.973 671.672 672.428 702.475 669.691 Z  M 705.491 692.028 C 693.77 693.701 681.797 701.307 677.298 712.614 C 671.556 725.593 673.687 741.443 681.93 752.868 C 693.222 767.535 716.191 769.607 730.768 758.685 C 744.073 749.257 748.054 730.477 742.934 715.544 C 737.561 700.375 721.386 690.504 705.491 692.028 Z " fill-rule="evenodd" fill="rgb(20,20,21)"/></g><g><path d=" M 511.185 671.203 C 512.545 673.693 512.425 677.123 512.545 679.893 C 512.525 687.063 512.325 694.223 512.355 701.393 C 524.155 694.923 538.115 694.473 550.785 698.513 C 561.715 702.253 570.195 710.623 575.735 720.583 C 580.985 729.793 581.415 741.813 579.585 752.023 C 575.485 773.353 555.045 789.593 533.385 788.983 C 518.045 788.953 503.625 780.853 495.175 768.133 C 488.435 758.473 487.195 745.393 487.665 733.943 C 489.465 712.333 487.325 690.993 489.935 669.273 C 496.745 668.803 504.795 668.583 511.185 671.203 Z  M 531.785 717.323 C 521.405 717.973 512.435 725.693 510.585 735.963 C 509.475 743.813 510.395 752.383 515.645 758.663 C 523.865 768.823 541.015 770.033 550.475 760.993 C 556.325 754.973 559.565 745.823 557.905 737.493 C 556.605 730.513 553.045 724.173 546.715 720.633 C 542.225 718.253 536.875 716.933 531.785 717.323 Z " fill="rgb(20,20,21)"/><path d=" M 401.735 671.643 C 404.725 673.013 404.185 676.113 404.505 678.863 C 404.615 686.163 404.295 693.463 404.445 700.763 C 419.325 693.323 437.965 694.473 451.895 703.463 C 462.265 710.943 469.895 722.443 472.045 735.113 C 473.415 744.173 471.325 753.923 467.785 762.283 C 464.035 770.713 456.855 777.773 449.125 782.643 C 429.835 794.523 401.795 789.283 388.575 770.713 C 380.965 761.013 378.645 749.013 379.565 736.913 C 381.275 716.993 380.005 696.823 380.335 676.843 C 380.655 674.403 380.355 671.703 383.035 670.593 C 388.775 668.003 396.205 668.953 401.735 671.643 Z  M 421.785 717.343 C 413.935 718.893 406.155 723.963 403.115 731.593 C 399.485 741.443 400.765 753.163 408.805 760.503 C 418.255 770.063 435.845 769.193 444.295 758.783 C 449.775 752.423 450.535 742.393 448.715 734.523 C 445.675 722.823 433.705 715.083 421.785 717.343 Z " fill="rgb(20,20,21)"/><path d=" M 310.775 696.363 C 331.285 693.083 352.035 705.063 360.505 723.783 C 363.755 731.653 365.245 740.703 363.745 749.143 C 361.375 763.943 351.415 777.913 337.775 784.353 C 326.705 790.003 312.935 790.393 301.395 785.893 C 289.875 781.473 281.305 772.543 275.425 761.893 C 271.905 754.673 271.275 745.843 271.515 737.933 C 272.015 725.213 279.245 714.243 288.525 706.033 C 294.855 700.513 302.595 697.743 310.775 696.363 Z  M 313.785 717.343 C 306.525 718.933 299.945 723.293 296.345 729.893 C 292.365 736.733 292.435 745.513 295.665 752.623 C 298.495 758.983 304.455 763.903 310.835 766.443 C 317.555 769.253 325.685 766.743 331.505 762.963 C 343.155 754.453 344.695 736.613 335.675 725.643 C 330.525 719.093 322.015 715.663 313.785 717.343 Z " fill="rgb(20,20,21)"/><path d=" M 195.365 666.963 C 205.865 666.973 217.145 666.743 227.425 668.873 C 236.095 670.543 243.705 676.413 248.835 683.423 C 254.305 691.483 254.865 701.513 254.505 710.943 C 254.305 719.123 251.005 727.033 245.605 733.133 C 241.565 737.573 236.625 739.943 231.325 742.483 C 237.235 749.183 242.855 755.953 248.145 763.163 C 252.555 769.223 259.435 775.603 261.475 782.883 C 259.595 785.613 256.645 786.663 253.455 786.953 C 248.885 787.353 244.055 787.503 239.555 786.483 C 236.015 785.693 233.655 781.343 231.685 778.593 C 226.225 770.003 219.475 763.253 212.995 755.313 C 209.485 751.243 204.925 746.083 199.345 745.213 C 193.495 744.353 187.375 744.903 181.475 745.013 C 181.245 758.953 181.545 772.893 181.315 786.843 C 173.695 786.963 166.085 786.963 158.465 786.843 C 158.265 754.863 158.505 722.883 158.355 690.913 C 158.395 685.133 157.765 678.953 158.965 673.273 C 159.705 669.973 162.335 668.663 165.425 668.163 C 175.095 666.663 185.575 667.153 195.365 666.963 Z  M 181.855 690.363 C 180.805 701.433 181.545 712.723 181.475 723.843 C 192.125 723.803 202.795 724.203 213.435 723.883 C 219.755 723.583 226.975 721.803 230.365 715.903 C 233.685 709.893 233.285 700.933 228.585 695.723 C 223.935 691.103 215.655 690.153 209.415 689.913 C 200.255 689.823 190.985 689.533 181.855 690.363 Z " fill="rgb(20,20,21)"/></g></g></g></svg>