<?xml version="1.0" encoding="UTF-8" standalone="no"?><!-- Generator: Gravit.io --><svg xmlns="http://www.w3.org/2000/svg" xmlns:xlink="http://www.w3.org/1999/xlink" style="isolation:isolate" viewBox="134.83 251.11 738.775 512.054" width="738.775pt" height="512.054pt"><g><path d=" M 836.99 643.23 C 839.92 643.46 840.44 646.65 841.12 648.93 C 842.56 655.96 841.94 663.53 842.24 670.68 C 849.22 670.98 857.44 670.51 864.01 673.03 C 868.86 674.89 872.85 678.85 873.6 684.14 C 873.75 689.19 870.26 694.25 864.97 694.73 C 857.75 695.54 850.33 694.92 843.07 695.03 C 843.07 706.03 842.83 717.04 842.91 728.04 C 843.16 732.05 843.17 736.64 847.64 738.24 C 854.39 740.27 862.79 738.08 869.75 738.67 C 872.51 745.19 870.64 754.11 870.86 761.14 C 862.11 762.03 852.93 762.84 844.2 761.55 C 831.83 758.98 820.66 748.91 819.3 735.93 C 818.26 724.7 819.46 713.22 819.09 701.95 C 818.91 700.18 818.97 697.82 817.93 696.31 C 814.77 694 809.27 693.86 807.68 690.15 C 805.48 686.36 804.84 680.9 808.98 678.14 C 812.46 675.07 819.26 673.71 818.97 668.08 C 819.5 659.91 818.4 651.71 819.43 643.49 C 825.19 642.78 831.23 642.34 836.99 643.23 Z " fill="rgb(20,20,21)"/><path d=" M 741.91 670.27 C 751.83 671.11 761.76 673.87 769.27 680.73 C 775.46 686.07 779.67 693.15 780.57 701.37 C 781.7 711.82 780.56 722.5 781.09 733.01 C 781.62 742.7 782.43 752.39 783.73 762.01 C 778.23 761.97 772.73 761.96 767.23 761.94 C 765.68 758.09 764.26 754.19 762.74 750.33 C 753.35 757.16 744.03 762.81 732.01 762.96 C 722.28 762.94 710.25 761.33 703.64 753.35 C 698.54 747.78 696.34 741.56 696.79 733.97 C 696.83 722.82 704.7 713.8 714.56 709.52 C 729.41 703.03 743.66 704.94 759.26 705.97 C 756.66 701.44 754.7 696.56 749.34 694.75 C 739.77 691.61 728.92 693.06 719.73 696.81 C 716.61 697.89 712.37 699.87 709.31 697.74 C 705.51 695.14 704.85 690.37 706.43 686.28 C 707.93 682.64 709.37 679.15 710.1 675.24 C 720.32 672.13 731.16 669.73 741.91 670.27 Z  M 752.53 725.39 C 743.3 724.6 731 724.37 723.24 730.27 C 719.36 733.02 720.8 739.46 725.16 740.73 C 731.71 742.21 739.05 740.15 744.61 736.57 C 748.7 733.86 750.54 729.68 752.53 725.39 Z " fill="rgb(20,20,21)"/><clipPath id="_clipPath_tx8PzZ1ccOhQhmhhIxY6BzW0fPI6r8eS"><path d=" M 741.91 670.27 C 751.83 671.11 761.76 673.87 769.27 680.73 C 775.46 686.07 779.67 693.15 780.57 701.37 C 781.7 711.82 780.56 722.5 781.09 733.01 C 781.62 742.7 782.43 752.39 783.73 762.01 C 778.23 761.97 772.73 761.96 767.23 761.94 C 765.68 758.09 764.26 754.19 762.74 750.33 C 753.35 757.16 744.03 762.81 732.01 762.96 C 722.28 762.94 710.25 761.33 703.64 753.35 C 698.54 747.78 696.34 741.56 696.79 733.97 C 696.83 722.82 704.7 713.8 714.56 709.52 C 729.41 703.03 743.66 704.94 759.26 705.97 C 756.66 701.44 754.7 696.56 749.34 694.75 C 739.77 691.61 728.92 693.06 719.73 696.81 C 716.61 697.89 712.37 699.87 709.31 697.74 C 705.51 695.14 704.85 690.37 706.43 686.28 C 707.93 682.64 709.37 679.15 710.1 675.24 C 720.32 672.13 731.16 669.73 741.91 670.27 Z  M 752.53 725.39 C 743.3 724.6 731 724.37 723.24 730.27 C 719.36 733.02 720.8 739.46 725.16 740.73 C 731.71 742.21 739.05 740.15 744.61 736.57 C 748.7 733.86 750.54 729.68 752.53 725.39 Z " fill="rgb(20,20,21)"/></clipPath><g clip-path="url(#_clipPath_tx8PzZ1ccOhQhmhhIxY6BzW0fPI6r8eS)"><path d=" M 752.53 725.39 C 750.54 729.68 748.7 733.86 744.61 736.57 C 739.05 740.15 731.71 742.21 725.16 740.73 C 720.8 739.46 719.36 733.02 723.24 730.27 C 731 724.37 743.3 724.6 752.53 725.39 Z " fill="rgb(237,239,243)"/></g><path d=" M 625.38 670.38 C 640.12 668.96 655.89 673.84 665.5 685.53 C 675.54 696.39 678.51 712.61 675.78 726.81 C 671.6 747.95 651.61 764 629.99 763.13 C 606.68 763.13 586.03 743.32 585.02 720.01 C 582.77 696.29 601.4 672.51 625.38 670.38 Z  M 628.39 691.44 C 620.47 692.57 612.38 697.71 609.34 705.35 C 605.46 714.12 606.9 724.83 612.47 732.55 C 620.1 742.46 635.62 743.86 645.47 736.48 C 654.46 730.11 657.15 717.42 653.69 707.33 C 650.06 697.08 639.13 690.41 628.39 691.44 Z " fill="rgb(20,20,21)"/><clipPath id="_clipPath_DI1a0Wb8bWxGjSVbzq5gAHKvITq8RII7"><path d=" M 625.38 670.38 C 640.12 668.96 655.89 673.84 665.5 685.53 C 675.54 696.39 678.51 712.61 675.78 726.81 C 671.6 747.95 651.61 764 629.99 763.13 C 606.68 763.13 586.03 743.32 585.02 720.01 C 582.77 696.29 601.4 672.51 625.38 670.38 Z  M 628.39 691.44 C 620.47 692.57 612.38 697.71 609.34 705.35 C 605.46 714.12 606.9 724.83 612.47 732.55 C 620.1 742.46 635.62 743.86 645.47 736.48 C 654.46 730.11 657.15 717.42 653.69 707.33 C 650.06 697.08 639.13 690.41 628.39 691.44 Z " fill="rgb(20,20,21)"/></clipPath><g clip-path="url(#_clipPath_DI1a0Wb8bWxGjSVbzq5gAHKvITq8RII7)"><path d=" M 628.39 691.44 C 639.13 690.41 650.06 697.08 653.69 707.33 C 657.15 717.42 654.46 730.11 645.47 736.48 C 635.62 743.86 620.1 742.46 612.47 732.55 C 606.9 724.83 605.46 714.12 609.34 705.35 C 612.38 697.71 620.47 692.57 628.39 691.44 Z " fill="rgb(237,239,243)"/></g><path d=" M 502.79 645.29 C 504.15 647.78 504.03 651.21 504.15 653.98 C 504.13 661.15 503.93 668.31 503.96 675.48 C 515.76 669.01 529.72 668.56 542.39 672.6 C 553.32 676.34 561.8 684.71 567.34 694.67 C 572.59 703.88 573.02 715.9 571.19 726.11 C 567.09 747.44 546.65 763.68 524.99 763.07 C 509.65 763.04 495.23 754.94 486.78 742.22 C 480.04 732.56 478.8 719.48 479.27 708.03 C 481.07 686.42 478.93 665.08 481.54 643.36 C 488.35 642.89 496.4 642.67 502.79 645.29 Z  M 523.39 691.41 C 513.01 692.06 504.04 699.78 502.19 710.05 C 501.08 717.9 502 726.47 507.25 732.75 C 515.47 742.91 532.62 744.12 542.08 735.08 C 547.93 729.06 551.17 719.91 549.51 711.58 C 548.21 704.6 544.65 698.26 538.32 694.72 C 533.83 692.34 528.48 691.02 523.39 691.41 Z " fill="rgb(20,20,21)"/><clipPath id="_clipPath_JKvZbAidmMFMmbvet1xENR2Tkfq00yVh"><path d=" M 502.79 645.29 C 504.15 647.78 504.03 651.21 504.15 653.98 C 504.13 661.15 503.93 668.31 503.96 675.48 C 515.76 669.01 529.72 668.56 542.39 672.6 C 553.32 676.34 561.8 684.71 567.34 694.67 C 572.59 703.88 573.02 715.9 571.19 726.11 C 567.09 747.44 546.65 763.68 524.99 763.07 C 509.65 763.04 495.23 754.94 486.78 742.22 C 480.04 732.56 478.8 719.48 479.27 708.03 C 481.07 686.42 478.93 665.08 481.54 643.36 C 488.35 642.89 496.4 642.67 502.79 645.29 Z  M 523.39 691.41 C 513.01 692.06 504.04 699.78 502.19 710.05 C 501.08 717.9 502 726.47 507.25 732.75 C 515.47 742.91 532.62 744.12 542.08 735.08 C 547.93 729.06 551.17 719.91 549.51 711.58 C 548.21 704.6 544.65 698.26 538.32 694.72 C 533.83 692.34 528.48 691.02 523.39 691.41 Z " fill="rgb(20,20,21)"/></clipPath><g clip-path="url(#_clipPath_JKvZbAidmMFMmbvet1xENR2Tkfq00yVh)"><path d=" M 523.39 691.41 C 528.48 691.02 533.83 692.34 538.32 694.72 C 544.65 698.26 548.21 704.6 549.51 711.58 C 551.17 719.91 547.93 729.06 542.08 735.08 C 532.62 744.12 515.47 742.91 507.25 732.75 C 502 726.47 501.08 717.9 502.19 710.05 C 504.04 699.78 513.01 692.06 523.39 691.41 Z " fill="rgb(237,239,243)"/></g><path d=" M 391.34 645.73 C 394.33 647.1 393.79 650.2 394.11 652.95 C 394.22 660.25 393.9 667.55 394.05 674.85 C 408.93 667.41 427.57 668.56 441.5 677.55 C 451.87 685.03 459.5 696.53 461.65 709.2 C 463.02 718.26 460.93 728.01 457.39 736.37 C 453.64 744.8 446.46 751.86 438.73 756.73 C 419.44 768.61 391.4 763.37 378.18 744.8 C 370.57 735.1 368.25 723.1 369.17 711 C 370.88 691.08 369.61 670.91 369.94 650.93 C 370.26 648.49 369.96 645.79 372.64 644.68 C 378.38 642.09 385.81 643.04 391.34 645.73 Z  M 411.39 691.43 C 403.54 692.98 395.76 698.05 392.72 705.68 C 389.09 715.53 390.37 727.25 398.41 734.59 C 407.86 744.15 425.45 743.28 433.9 732.87 C 439.38 726.51 440.14 716.48 438.32 708.61 C 435.28 696.91 423.31 689.17 411.39 691.43 Z " fill="rgb(20,20,21)"/><clipPath id="_clipPath_kO8ssPS5DxDpWA8aimmOS0Xsxp8s48ux"><path d=" M 391.34 645.73 C 394.33 647.1 393.79 650.2 394.11 652.95 C 394.22 660.25 393.9 667.55 394.05 674.85 C 408.93 667.41 427.57 668.56 441.5 677.55 C 451.87 685.03 459.5 696.53 461.65 709.2 C 463.02 718.26 460.93 728.01 457.39 736.37 C 453.64 744.8 446.46 751.86 438.73 756.73 C 419.44 768.61 391.4 763.37 378.18 744.8 C 370.57 735.1 368.25 723.1 369.17 711 C 370.88 691.08 369.61 670.91 369.94 650.93 C 370.26 648.49 369.96 645.79 372.64 644.68 C 378.38 642.09 385.81 643.04 391.34 645.73 Z  M 411.39 691.43 C 403.54 692.98 395.76 698.05 392.72 705.68 C 389.09 715.53 390.37 727.25 398.41 734.59 C 407.86 744.15 425.45 743.28 433.9 732.87 C 439.38 726.51 440.14 716.48 438.32 708.61 C 435.28 696.91 423.31 689.17 411.39 691.43 Z " fill="rgb(20,20,21)"/></clipPath><g clip-path="url(#_clipPath_kO8ssPS5DxDpWA8aimmOS0Xsxp8s48ux)"><path d=" M 411.39 691.43 C 423.31 689.17 435.28 696.91 438.32 708.61 C 440.14 716.48 439.38 726.51 433.9 732.87 C 425.45 743.28 407.86 744.15 398.41 734.59 C 390.37 727.25 389.09 715.53 392.72 705.68 C 395.76 698.05 403.54 692.98 411.39 691.43 Z " fill="rgb(237,239,243)"/></g><path d=" M 296.38 670.45 C 316.89 667.17 337.64 679.15 346.11 697.87 C 349.36 705.74 350.85 714.79 349.35 723.23 C 346.98 738.03 337.02 752 323.38 758.44 C 312.31 764.09 298.54 764.48 287 759.98 C 275.48 755.56 266.91 746.63 261.03 735.98 C 257.51 728.76 256.88 719.93 257.12 712.02 C 257.62 699.3 264.85 688.33 274.13 680.12 C 280.46 674.6 288.2 671.83 296.38 670.45 Z  M 299.39 691.43 C 292.13 693.02 285.55 697.38 281.95 703.98 C 277.97 710.82 278.04 719.6 281.27 726.71 C 284.1 733.07 290.06 737.99 296.44 740.53 C 303.16 743.34 311.29 740.83 317.11 737.05 C 328.76 728.54 330.3 710.7 321.28 699.73 C 316.13 693.18 307.62 689.75 299.39 691.43 Z " fill="rgb(20,20,21)"/><clipPath id="_clipPath_rcgsDx9hfmoneMJi8GYHZti0lEaPG0VO"><path d=" M 296.38 670.45 C 316.89 667.17 337.64 679.15 346.11 697.87 C 349.36 705.74 350.85 714.79 349.35 723.23 C 346.98 738.03 337.02 752 323.38 758.44 C 312.31 764.09 298.54 764.48 287 759.98 C 275.48 755.56 266.91 746.63 261.03 735.98 C 257.51 728.76 256.88 719.93 257.12 712.02 C 257.62 699.3 264.85 688.33 274.13 680.12 C 280.46 674.6 288.2 671.83 296.38 670.45 Z  M 299.39 691.43 C 292.13 693.02 285.55 697.38 281.95 703.98 C 277.97 710.82 278.04 719.6 281.27 726.71 C 284.1 733.07 290.06 737.99 296.44 740.53 C 303.16 743.34 311.29 740.83 317.11 737.05 C 328.76 728.54 330.3 710.7 321.28 699.73 C 316.13 693.18 307.62 689.75 299.39 691.43 Z " fill="rgb(20,20,21)"/></clipPath><g clip-path="url(#_clipPath_rcgsDx9hfmoneMJi8GYHZti0lEaPG0VO)"><path d=" M 299.39 691.43 C 307.62 689.75 316.13 693.18 321.28 699.73 C 330.3 710.7 328.76 728.54 317.11 737.05 C 311.29 740.83 303.16 743.34 296.44 740.53 C 290.06 737.99 284.1 733.07 281.27 726.71 C 278.04 719.6 277.97 710.82 281.95 703.98 C 285.55 697.38 292.13 693.02 299.39 691.43 Z " fill="rgb(237,239,243)"/></g><path d=" M 171.97 641.05 C 182.47 641.06 193.75 640.83 204.03 642.96 C 212.7 644.63 220.31 650.5 225.44 657.51 C 230.91 665.57 231.47 675.6 231.11 685.03 C 230.91 693.21 227.61 701.12 222.21 707.22 C 218.17 711.66 213.23 714.03 207.93 716.57 C 213.84 723.27 219.46 730.04 224.75 737.25 C 229.16 743.31 236.04 749.69 238.08 756.97 C 236.2 759.7 233.25 760.75 230.06 761.04 C 225.49 761.44 220.66 761.59 216.16 760.57 C 212.62 759.78 210.26 755.43 208.29 752.68 C 202.83 744.09 196.08 737.34 189.6 729.4 C 186.09 725.33 181.53 720.17 175.95 719.3 C 170.1 718.44 163.98 718.99 158.08 719.1 C 157.85 733.04 158.15 746.98 157.92 760.93 C 150.3 761.05 142.69 761.05 135.07 760.93 C 134.87 728.95 135.11 696.97 134.96 665 C 135 659.22 134.37 653.04 135.57 647.36 C 136.31 644.06 138.94 642.75 142.03 642.25 C 151.7 640.75 162.18 641.24 171.97 641.05 Z  M 158.46 664.45 C 157.41 675.52 158.15 686.81 158.08 697.93 C 168.73 697.89 179.4 698.29 190.04 697.97 C 196.36 697.67 203.58 695.89 206.97 689.99 C 210.29 683.98 209.89 675.02 205.19 669.81 C 200.54 665.19 192.26 664.24 186.02 664 C 176.86 663.91 167.59 663.62 158.46 664.45 Z " fill="rgb(20,20,21)"/><clipPath id="_clipPath_EShFbKlF5XLaWklAPbXWuZ0T8IZF2Wqj"><path d=" M 171.97 641.05 C 182.47 641.06 193.75 640.83 204.03 642.96 C 212.7 644.63 220.31 650.5 225.44 657.51 C 230.91 665.57 231.47 675.6 231.11 685.03 C 230.91 693.21 227.61 701.12 222.21 707.22 C 218.17 711.66 213.23 714.03 207.93 716.57 C 213.84 723.27 219.46 730.04 224.75 737.25 C 229.16 743.31 236.04 749.69 238.08 756.97 C 236.2 759.7 233.25 760.75 230.06 761.04 C 225.49 761.44 220.66 761.59 216.16 760.57 C 212.62 759.78 210.26 755.43 208.29 752.68 C 202.83 744.09 196.08 737.34 189.6 729.4 C 186.09 725.33 181.53 720.17 175.95 719.3 C 170.1 718.44 163.98 718.99 158.08 719.1 C 157.85 733.04 158.15 746.98 157.92 760.93 C 150.3 761.05 142.69 761.05 135.07 760.93 C 134.87 728.95 135.11 696.97 134.96 665 C 135 659.22 134.37 653.04 135.57 647.36 C 136.31 644.06 138.94 642.75 142.03 642.25 C 151.7 640.75 162.18 641.24 171.97 641.05 Z  M 158.46 664.45 C 157.41 675.52 158.15 686.81 158.08 697.93 C 168.73 697.89 179.4 698.29 190.04 697.97 C 196.36 697.67 203.58 695.89 206.97 689.99 C 210.29 683.98 209.89 675.02 205.19 669.81 C 200.54 665.19 192.26 664.24 186.02 664 C 176.86 663.91 167.59 663.62 158.46 664.45 Z " fill="rgb(20,20,21)"/></clipPath><g clip-path="url(#_clipPath_EShFbKlF5XLaWklAPbXWuZ0T8IZF2Wqj)"><path d=" M 186.02 664 C 192.26 664.24 200.54 665.19 205.19 669.81 C 209.89 675.02 210.29 683.98 206.97 689.99 C 203.58 695.89 196.36 697.67 190.04 697.97 C 179.4 698.29 168.73 697.89 158.08 697.93 C 158.15 686.81 157.41 675.52 158.46 664.45 C 167.59 663.62 176.86 663.91 186.02 664 Z " fill="rgb(237,239,243)"/></g></g><g style="isolation:isolate"><path d=" M 524 251.8 C 534.05 252.54 544.06 254.19 553.93 256.17 C 583.77 263.59 611.84 278.68 634.46 299.53 C 641.21 305.48 647.56 311.85 653.04 319.01 C 673.51 344.32 687.36 374.51 691.13 406.98 C 692.27 416.04 692.07 424.9 692.04 434 C 691.81 453.8 689.02 473.18 681.59 491.62 C 676.22 506.3 668.62 519.93 659.78 532.79 C 652.26 543.49 642.62 553.16 633.17 562.17 C 623.67 571.5 612.63 578.52 601.23 585.24 C 594.38 589.57 586.98 592.64 579.46 595.58 C 568.43 600.49 556.81 603.59 545 605.95 C 527.36 608.7 509.83 610.34 492.03 607.82 C 480.2 606.21 467.98 604.12 456.63 600.36 C 433.88 592.48 412.59 581.49 394.2 565.81 C 370.01 545.55 351.64 518.87 340.75 489.29 C 336.68 477.51 334.1 465.11 332.15 452.81 C 330.49 442.59 331 432.59 330.94 422 C 330.89 414.94 331.8 408 333.07 401.08 C 337.47 374.64 348.01 349.44 363.67 327.69 C 370.68 316.99 379.8 308.73 388.74 299.74 C 395.01 293.57 401.77 287.92 409.16 283.14 C 426.16 271.64 444.76 262.85 464.56 257.42 C 483.71 252.8 504.32 249.65 524 251.8 Z  M 413.69 540.25 C 413.32 532.73 413.26 525.61 416.66 518.67 C 421.24 509.45 426.69 499.22 435.75 493.74 C 442.43 489.41 450.12 487.92 457.99 487.94 C 490.65 488.04 523.33 488.01 556 487.98 C 564.73 488.08 574.23 486.85 582.29 490.73 C 593.66 495.75 601.16 506.91 606.05 517.91 C 609.39 525.34 610.11 533.12 610.43 541.16 C 624.82 530.52 636.25 516.79 645.4 501.49 C 656.58 480.56 663.65 457.97 663.18 434.05 C 663.72 412.47 660.92 391.22 651.45 371.62 C 644 352.82 631.96 336.5 617.33 322.66 C 607.74 313.12 596.01 305.42 584.33 298.68 C 567.37 289.84 549.24 283.48 530.11 281.66 C 514.55 278.61 499.39 280.42 483.9 282.84 C 461.5 287.18 440.08 296.15 421.65 309.66 C 412.92 316.26 404.5 322.96 397.47 331.42 C 390.55 340.01 383.64 347.69 378.62 357.64 C 371.49 371.56 364.93 386.73 362.26 402.21 C 358.11 425.2 359.33 449.73 365.73 472.2 C 370.56 486.83 376.78 502.39 386.51 514.47 C 390.43 519.47 394.48 524.54 398.97 529.03 C 403.42 533.46 408.5 536.76 413.69 540.25 Z " fill="rgb(20,20,21)"/><path d=" M 504 333.95 C 516.68 334.06 528.89 333.44 541.4 335.69 C 555.56 338.44 567.98 347.02 576.27 358.73 C 578.64 361.75 580.59 365.81 583.69 368.1 C 589.13 369.92 596.22 368.08 601.56 370.5 C 606.22 372.94 606.91 379.29 607.07 383.97 C 607.15 395.31 606.82 406.65 607.16 418 C 606.96 422.54 607.76 428.48 603.26 431.26 C 597.8 434.43 589.57 431.67 583.93 434.06 C 578.62 439.01 575.11 445.75 569.79 450.79 C 559.98 461.1 546.1 466.14 532.01 466.08 C 517.33 465.97 502.66 465.99 487.98 466.08 C 473.82 466.21 459.42 458.26 450.22 447.76 C 446.32 443.68 444.28 437.7 440.12 434.02 C 433.94 431.73 424.43 434.2 418.39 430.55 C 415.84 428.68 416.04 423.85 415.87 421.03 C 415.97 409.01 416.11 397.01 415.85 384.99 C 416.01 380.45 415.56 374.75 419.75 371.77 C 424.98 367.91 433.55 369.99 439.31 368.08 C 443.76 364.46 446.32 358.44 450.14 354.1 C 456.53 346.6 465.1 340.4 474.61 337.6 C 484.23 334.67 493.99 333.87 504 333.95 Z  M 527 422.02 C 533.2 421.97 539.71 422.61 545.83 421.57 C 550.94 420.58 553.6 415.95 553.91 411.06 C 554.31 403.94 554.7 396.4 553.39 389.37 C 552.07 383.7 544.76 383.13 540.03 382.93 C 522.36 382.92 504.68 383.15 487 382.88 C 482.4 382.97 475.58 382.61 471.94 385.92 C 468.99 389.23 468.52 394.9 468.55 399.16 C 468.84 404.88 468.23 411.97 470.87 417.17 C 473.79 422.09 478.9 421.97 483.98 422.14 C 498.32 421.98 512.66 421.95 527 422.02 Z " fill="rgb(20,20,21)"/><path d=" M 487 382.88 C 504.68 383.15 522.36 382.92 540.03 382.93 C 544.76 383.13 552.07 383.7 553.39 389.37 C 554.7 396.4 554.31 403.94 553.91 411.06 C 553.6 415.95 550.94 420.58 545.83 421.57 C 539.71 422.61 533.2 421.97 527 422.02 C 512.66 421.95 498.32 421.98 483.98 422.14 C 478.9 421.97 473.79 422.09 470.87 417.17 C 468.23 411.97 468.84 404.88 468.55 399.16 C 468.52 394.9 468.99 389.23 471.94 385.92 C 475.58 382.61 482.4 382.97 487 382.88 Z " fill="rgb(237,239,243)"/></g></svg>